<?xml version="1.0" encoding="utf-8"?>
<!-- Generator: Adobe Illustrator 27.2.0, SVG Export Plug-In . SVG Version: 6.00 Build 0)  -->
<svg version="1.1" id="Layer_1" xmlns="http://www.w3.org/2000/svg" xmlns:xlink="http://www.w3.org/1999/xlink" x="0px" y="0px"
	 viewBox="0 0 384 512" style="enable-background:new 0 0 384 512;" xml:space="preserve">
<style type="text/css">
	.st0{fill:#7E22CE;}
	.st1{fill:#FFFFFF;}
</style>
<path class="st0" d="M192,512c0,0,192-208,192-320C384,86,298,0,192,0S0,86,0,192C0,304,192,512,192,512z"/>
<g>
	<path class="st1" d="M142.5,266c6.5,4.2,21.6,10.7,37.4,10.7c29.4,0,38.5-18.7,38.2-32.7c-0.3-23.6-21.6-33.8-43.7-33.8h-12.7V193
		h12.7c16.6,0,37.7-8.6,37.7-28.6c0-13.5-8.6-25.5-29.6-25.5c-13.5,0-26.5,6-33.8,11.2l-6-16.6c8.8-6.5,26-13,44.2-13
		c33.3,0,48.3,19.7,48.3,40.3c0,17.4-10.4,32.2-31.2,39.8v0.5c20.8,4.2,37.7,19.7,37.7,43.4c0,27-21,50.7-61.6,50.7
		c-19,0-35.6-6-43.9-11.4L142.5,266z"/>
</g>
</svg>
