<?xml version="1.0" encoding="utf-8"?>
<!-- Generator: Adobe Illustrator 27.2.0, SVG Export Plug-In . SVG Version: 6.00 Build 0)  -->
<svg version="1.1" id="Layer_1" xmlns="http://www.w3.org/2000/svg" xmlns:xlink="http://www.w3.org/1999/xlink" x="0px" y="0px"
	 viewBox="0 0 384 512" style="enable-background:new 0 0 384 512;" xml:space="preserve">
<style type="text/css">
	.st0{fill:#7E22CE;}
	.st1{fill:#FFFFFF;}
</style>
<path class="st0" d="M192,512c0,0,192-208,192-320C384,86,298,0,192,0S0,86,0,192C0,304,192,512,192,512z"/>
<g>
	<path class="st1" d="M233.4,139.5c-4.7-0.3-10.7,0-17.1,1c-35.9,6-54.8,32.2-58.7,60h0.8c8.1-10.7,22.1-19.5,40.8-19.5
		c29.9,0,50.9,21.6,50.9,54.6c0,30.9-21,59.5-56.1,59.5c-36.1,0-59.8-28.1-59.8-72c0-33.3,12-59.5,28.6-76.1
		c14-13.8,32.7-22.3,54-24.9c6.8-1,12.5-1.3,16.6-1.3V139.5z M226.9,236.9c0-24.2-13.8-38.7-34.8-38.7c-13.8,0-26.5,8.6-32.7,20.8
		c-1.6,2.6-2.6,6-2.6,10.1c0.5,27.8,13.3,48.3,37.2,48.3C213.7,277.5,226.9,261.1,226.9,236.9z"/>
</g>
</svg>
