<?xml version="1.0" encoding="utf-8"?>
<!-- Generator: Adobe Illustrator 27.2.0, SVG Export Plug-In . SVG Version: 6.00 Build 0)  -->
<svg version="1.1" id="Layer_1" xmlns="http://www.w3.org/2000/svg" xmlns:xlink="http://www.w3.org/1999/xlink" x="0px" y="0px"
	 viewBox="0 0 384 512" style="enable-background:new 0 0 384 512;" xml:space="preserve">
<style type="text/css">
	.st0{fill:#7E22CE;}
	.st1{fill:#FFFFFF;}
</style>
<path class="st0" d="M192,512c0,0,192-208,192-320C384,86,298,0,192,0S0,86,0,192C0,304,192,512,192,512z"/>
<g>
	<path class="st1" d="M207.7,292.3v-46h-78.5v-15.1l75.3-107.8h24.7v105h23.6v17.9h-23.6v46H207.7z M207.7,228.3V172
		c0-8.8,0.3-17.7,0.8-26.5h-0.8c-5.2,9.9-9.4,17.1-14,24.9l-41.3,57.4v0.5H207.7z"/>
</g>
</svg>
