<?xml version="1.0" encoding="utf-8"?>
<!-- Generator: Adobe Illustrator 27.2.0, SVG Export Plug-In . SVG Version: 6.00 Build 0)  -->
<svg version="1.1" id="Layer_1" xmlns="http://www.w3.org/2000/svg" xmlns:xlink="http://www.w3.org/1999/xlink" x="0px" y="0px"
	 viewBox="0 0 384 512" style="enable-background:new 0 0 384 512;" xml:space="preserve">
<style type="text/css">
	.st0{fill:#7E22CE;}
	.st1{fill:#FFFFFF;}
</style>
<path class="st0" d="M192,512c0,0,192-208,192-320C384,86,298,0,192,0S0,86,0,192C0,304,192,512,192,512z"/>
<g>
	<path class="st1" d="M120,144.7h-0.5l-29.4,15.8l-4.4-17.4l36.9-19.7h19.5v168.9H120V144.7z"/>
	<path class="st1" d="M315.9,206c0,57.4-21.3,89.1-58.7,89.1c-33,0-55.3-30.9-55.9-86.8c0-56.6,24.4-87.8,58.7-87.8
		C295.7,120.5,315.9,152.2,315.9,206z M224.2,208.6c0,43.9,13.5,68.9,34.3,68.9c23.4,0,34.6-27.3,34.6-70.4
		c0-41.6-10.7-68.9-34.3-68.9C238.8,138.2,224.2,162.6,224.2,208.6z"/>
</g>
</svg>
