<?xml version="1.0" encoding="utf-8"?>
<!-- Generator: Adobe Illustrator 27.2.0, SVG Export Plug-In . SVG Version: 6.00 Build 0)  -->
<svg version="1.1" id="Layer_1" xmlns="http://www.w3.org/2000/svg" xmlns:xlink="http://www.w3.org/1999/xlink" x="0px" y="0px"
	 viewBox="0 0 384 512" style="enable-background:new 0 0 384 512;" xml:space="preserve">
<style type="text/css">
	.st0{fill:#7E22CE;}
	.st1{fill:#FFFFFF;}
</style>
<path class="st0" d="M192,512c0,0,192-208,192-320C384,86,298,0,192,0S0,86,0,192C0,304,192,512,192,512z"/>
<g>
	<path class="st1" d="M120,144.7h-0.5l-29.4,15.8l-4.4-17.4l36.9-19.7h19.5v168.9H120V144.7z"/>
	<path class="st1" d="M216.9,276.2c4.9,0.5,10.7,0,18.4-0.8c13.3-1.8,25.7-7.3,35.3-16.4c11.2-10.1,19.2-24.9,22.3-45h-0.8
		c-9.4,11.4-22.9,18.2-39.8,18.2c-30.4,0-49.9-22.9-49.9-51.7c0-32,23.1-60,57.7-60c34.6,0,55.9,28.1,55.9,71.2
		c0,37.2-12.5,63.1-29.1,79.2c-13,12.7-30.9,20.5-49.1,22.6c-8.3,1.3-15.6,1.6-21,1.3V276.2z M225.3,179c0,21,12.7,35.9,32.5,35.9
		c15.3,0,27.3-7.5,33.3-17.7c1.3-2.1,2.1-4.7,2.1-8.3c0-28.8-10.7-50.9-34.6-50.9C239,137.9,225.3,155.1,225.3,179z"/>
</g>
</svg>
