<?xml version="1.0" encoding="utf-8"?>
<!-- Generator: Adobe Illustrator 27.2.0, SVG Export Plug-In . SVG Version: 6.00 Build 0)  -->
<svg version="1.1" id="Layer_1" xmlns="http://www.w3.org/2000/svg" xmlns:xlink="http://www.w3.org/1999/xlink" x="0px" y="0px"
	 viewBox="0 0 384 512" style="enable-background:new 0 0 384 512;" xml:space="preserve">
<style type="text/css">
	.st0{fill:#7E22CE;}
	.st1{fill:#FFFFFF;}
</style>
<path class="st0" d="M192,512c0,0,192-208,192-320C384,86,298,0,192,0S0,86,0,192C0,304,192,512,192,512z"/>
<g>
	<path class="st1" d="M120,144.7h-0.5l-29.4,15.8l-4.4-17.4l36.9-19.7h19.5v168.9H120V144.7z"/>
	<path class="st1" d="M304.5,142.6h-64.4l-6.5,43.4c3.9-0.5,7.5-1,13.8-1c13,0,26,2.9,36.4,9.1c13.3,7.5,24.2,22.1,24.2,43.4
		c0,33-26.2,57.7-62.9,57.7c-18.4,0-34-5.2-42.1-10.4l5.7-17.4c7,4.2,20.8,9.4,36.1,9.4c21.6,0,40-14,40-36.6
		c-0.3-21.8-14.8-37.4-48.6-37.4c-9.6,0-17.1,1-23.4,1.8l10.9-81.1h80.8V142.6z"/>
</g>
</svg>
