<?xml version="1.0" encoding="utf-8"?>
<!-- Generator: Adobe Illustrator 27.2.0, SVG Export Plug-In . SVG Version: 6.00 Build 0)  -->
<svg version="1.1" id="Layer_1" xmlns="http://www.w3.org/2000/svg" xmlns:xlink="http://www.w3.org/1999/xlink" x="0px" y="0px"
	 viewBox="0 0 384 512" style="enable-background:new 0 0 384 512;" xml:space="preserve">
<style type="text/css">
	.st0{fill:#7E22CE;}
	.st1{fill:#FFFFFF;}
</style>
<path class="st0" d="M192,512c0,0,192-208,192-320C384,86,298,0,192,0S0,86,0,192C0,304,192,512,192,512z"/>
<g>
	<path class="st1" d="M135,249.4c0-21.3,12.7-36.4,33.5-45.2l-0.3-0.8c-18.7-8.8-26.8-23.4-26.8-37.9c0-26.8,22.6-45,52.2-45
		c32.7,0,49.1,20.5,49.1,41.6c0,14.3-7,29.6-27.8,39.5v0.8c21,8.3,34,23.1,34,43.7c0,29.4-25.2,49.1-57.4,49.1
		C156.3,295.1,135,274.1,135,249.4z M225.9,248.4c0-20.5-14.3-30.4-37.2-36.9c-19.7,5.7-30.4,18.7-30.4,34.8
		c-0.8,17.1,12.2,32.2,33.8,32.2C212.7,278.5,225.9,265.8,225.9,248.4z M163,163.9c0,16.9,12.7,26,32.2,31.2
		c14.5-4.9,25.7-15.3,25.7-30.7c0-13.5-8.1-27.5-28.6-27.5C173.4,136.9,163,149.4,163,163.9z"/>
</g>
</svg>
