<?xml version="1.0" encoding="utf-8"?>
<!-- Generator: Adobe Illustrator 27.2.0, SVG Export Plug-In . SVG Version: 6.00 Build 0)  -->
<svg version="1.1" id="Layer_1" xmlns="http://www.w3.org/2000/svg" xmlns:xlink="http://www.w3.org/1999/xlink" x="0px" y="0px"
	 viewBox="0 0 384 512" style="enable-background:new 0 0 384 512;" xml:space="preserve">
<style type="text/css">
	.st0{fill:#7E22CE;}
	.st1{fill:#FFFFFF;}
</style>
<path class="st0" d="M192,512c0,0,192-208,192-320C384,86,298,0,192,0S0,86,0,192C0,304,192,512,192,512z"/>
<g>
	<path class="st1" d="M137,292.3v-14l17.9-17.4c43.1-41.1,62.6-62.9,62.9-88.3c0-17.1-8.3-33-33.5-33c-15.3,0-28.1,7.8-35.9,14.3
		l-7.3-16.1c11.7-9.9,28.3-17.1,47.8-17.1c36.4,0,51.7,24.9,51.7,49.1c0,31.2-22.6,56.4-58.2,90.7L169,272.8v0.5h75.9v19H137z"/>
</g>
</svg>
